<?xml version="1.0" standalone="no"?>
<!DOCTYPE svg PUBLIC "-//W3C//DTD SVG 1.1//EN" "http://www.w3.org/Graphics/SVG/1.1/DTD/svg11.dtd" >
<svg xmlns="http://www.w3.org/2000/svg" xmlns:xlink="http://www.w3.org/1999/xlink" version="1.1" viewBox="-10 0 520 1000">
   <path fill="currentColor"
d="M250 806.87q82.6816 0 141.275 -58.5938t58.5938 -141.276t-58.5938 -141.276t-141.275 -58.5938q-82.6826 0 -141.276 58.5938t-58.5938 141.276t58.5938 141.276t141.276 58.5938zM250 357q103.516 0 177.083 72.917q72.917 73.5674 72.917 177.083t-72.917 177.083
q-73.5674 72.917 -177.083 72.917t-177.084 -72.917q-72.916 -73.5674 -72.916 -177.083t72.916 -177.083q73.5684 -72.917 177.084 -72.917zM250 482q52.083 0 88.541 36.458q36.459 36.459 36.459 88.542q0 51.4326 -36.459 88.542q-36.458 36.458 -88.541 36.458
q-52.084 0 -88.542 -36.458q-36.458 -37.1094 -36.458 -88.542q0 -52.083 36.458 -88.542q36.458 -36.458 88.542 -36.458z" />
</svg>
